<?xml version="1.0" standalone="no"?>
<!DOCTYPE svg PUBLIC "-//W3C//DTD SVG 20010904//EN"
 "http://www.w3.org/TR/2001/REC-SVG-20010904/DTD/svg10.dtd">
<svg version="1.0" xmlns="http://www.w3.org/2000/svg"
 width="300.000000pt" height="160.000000pt" viewBox="0 0 300.000000 160.000000"
 preserveAspectRatio="xMidYMid meet">
<metadata>
Created by potrace 1.10, written by Peter Selinger 2001-2011
</metadata>
<g transform="translate(0.000000,160.000000) scale(0.100000,-0.100000)"
fill="#000000" stroke="none">
<path d="M2089 1577 c31 -21 38 -22 70 -12 72 24 64 28 -21 10 -9 -2 -22 3
-29 11 -6 8 -21 14 -32 14 -18 0 -16 -4 12 -23z"/>
<path d="M2236 1586 c4 -9 -6 -16 -31 -20 -21 -4 -34 -10 -31 -13 3 -3 26 0
51 7 34 9 43 16 33 22 -9 6 -4 8 15 3 19 -4 26 -2 22 5 -10 16 -65 13 -59 -4z"/>
<path d="M2613 1580 c26 -21 57 -24 91 -11 17 6 17 8 3 14 -8 3 -17 1 -19 -5
-2 -6 -17 -4 -42 6 -52 22 -64 20 -33 -4z"/>
<path d="M2832 1584 c-13 -9 -46 -18 -75 -21 -29 -3 -59 -11 -68 -19 -9 -8
-18 -11 -22 -8 -8 9 -100 -15 -108 -28 -3 -5 -26 -12 -49 -14 -41 -4 -46 -1
-91 46 -27 28 -56 50 -68 50 -18 0 -17 -4 12 -30 54 -50 91 -80 102 -81 58 -6
81 -4 112 12 21 11 43 19 50 19 7 0 13 5 13 10 0 19 28 10 79 -27 28 -21 49
-44 46 -50 -6 -17 7 -16 30 0 17 13 15 16 -27 45 -24 17 -50 37 -57 46 -12 14
-8 16 31 16 40 0 45 -3 55 -31 10 -26 14 -29 27 -17 13 11 12 15 -7 30 -19 15
-20 19 -7 28 8 5 25 10 38 10 12 0 22 5 22 11 0 5 3 8 8 6 4 -3 25 -1 47 3 40
8 40 8 -15 9 -36 1 -63 -5 -78 -15z"/>
<path d="M1850 1565 c0 -15 60 -79 67 -72 3 3 -11 23 -31 44 -20 21 -36 33
-36 28z"/>
<path d="M2045 1546 l-30 -13 40 -5 c22 -3 45 -1 50 4 6 6 3 7 -8 2 -13 -5
-16 -2 -11 10 7 19 -1 19 -41 2z"/>
<path d="M1622 1529 c-85 -27 -74 -34 14 -10 38 11 83 21 99 24 25 3 23 4 -10
5 -22 0 -69 -8 -103 -19z"/>
<path d="M2189 1474 c30 -29 53 -55 51 -57 -11 -7 -148 -47 -164 -47 -12 0
-16 -5 -13 -14 4 -11 -4 -14 -37 -14 -51 1 -75 -10 -55 -24 10 -7 5 -8 -14 -4
-17 4 -76 -8 -165 -33 -198 -56 -197 -56 -216 -29 -9 12 -16 18 -16 13 0 -13
11 -27 31 -43 14 -11 36 -7 134 23 128 39 128 39 121 27 -3 -5 18 -3 47 5 77
20 330 105 344 116 8 6 23 2 43 -13 17 -12 38 -19 46 -16 27 10 70 -21 210
-158 76 -74 140 -133 142 -131 7 7 -22 41 -58 70 -26 20 -35 34 -28 42 6 7 5
14 -3 19 -8 4 -9 3 -5 -4 4 -7 1 -12 -7 -12 -27 0 -28 29 -2 36 14 3 25 10 25
15 0 12 -7 11 -29 -2 -13 -9 -23 -9 -37 -1 -14 8 -15 12 -4 12 12 0 12 2 1 9
-9 6 0 13 32 24 l45 15 36 -37 c20 -20 36 -40 36 -43 0 -4 -14 -9 -30 -13 -17
-4 -28 -10 -25 -15 7 -12 63 11 70 30 4 10 -10 29 -41 56 l-48 42 -58 -21 -58
-21 -43 41 c-47 45 -76 63 -105 63 -11 0 -25 6 -31 14 -10 11 0 17 55 34 37
11 73 18 80 15 8 -3 14 0 14 6 0 7 -7 14 -16 18 -23 9 -162 -39 -167 -57 -3
-10 -7 -7 -15 10 -14 33 -93 108 -113 107 -10 0 5 -20 40 -53z"/>
<path d="M1995 1505 c-22 -7 -31 -13 -20 -13 11 0 38 5 60 13 22 7 31 13 20
13 -11 0 -38 -5 -60 -13z"/>
<path d="M1388 1466 c-37 -12 -71 -26 -75 -31 -5 -4 0 -5 10 -2 10 4 49 14 87
23 39 10 70 21 70 26 0 12 -16 9 -92 -16z"/>
<path d="M2826 1465 c-4 -10 1 -15 14 -15 11 0 20 -5 20 -12 0 -6 3 -9 6 -5 3
3 27 -6 52 -19 l46 -25 20 22 21 21 -41 -6 c-36 -5 -47 -2 -79 24 -43 34 -51
36 -59 15z"/>
<path d="M1940 1456 c0 -10 -14 -17 -45 -22 -25 -3 -47 -9 -49 -13 -3 -4 12
-26 32 -49 36 -41 38 -42 77 -31 22 5 50 15 62 21 22 11 22 12 -19 57 -48 52
-58 59 -58 37z m55 -56 c7 0 15 -6 18 -13 4 -10 -10 -18 -44 -26 -47 -12 -51
-12 -70 10 -25 29 -21 41 22 56 30 10 36 9 48 -8 7 -10 19 -19 26 -19z"/>
<path d="M1745 1448 c3 -9 -30 -23 -105 -44 -61 -17 -110 -27 -110 -22 0 4 5
8 10 8 6 0 10 4 10 10 0 17 -28 -1 -33 -21 -7 -25 4 -24 116 7 157 43 178 54
141 68 -24 9 -34 7 -29 -6z"/>
<path d="M2510 1441 c0 -11 90 -95 118 -110 38 -20 24 1 -40 61 -61 56 -78 67
-78 49z"/>
<path d="M1195 1414 c-27 -7 -69 -19 -93 -25 -83 -22 -34 -19 63 4 54 13 94
26 89 29 -5 3 -31 -1 -59 -8z"/>
<path d="M2808 1419 c62 -52 136 -100 152 -97 16 2 6 14 -47 52 -37 27 -78 50
-90 51 -13 0 -19 -2 -15 -6z"/>
<path d="M2758 1366 c-15 -8 -40 -17 -57 -21 -17 -4 -31 -11 -31 -17 0 -6 7
-8 15 -4 9 3 30 -8 53 -28 36 -32 39 -33 97 -26 65 9 95 18 95 30 0 4 -17 2
-37 -6 -59 -20 -104 -17 -138 11 -25 21 -28 27 -15 35 8 6 25 9 36 7 13 -2 26
4 33 15 9 15 8 18 -6 18 -10 0 -30 -6 -45 -14z"/>
<path d="M1447 1349 c-21 -5 -107 -29 -190 -53 -282 -82 -452 -127 -468 -123
-9 2 -21 -4 -28 -15 -6 -10 -15 -17 -20 -14 -4 3 -50 -8 -102 -24 -52 -16
-107 -32 -122 -34 -32 -5 -44 -13 -34 -23 4 -3 80 15 169 41 90 26 185 54 212
62 26 8 56 14 65 14 9 0 21 4 27 8 5 5 36 16 69 25 153 42 314 89 355 102 84
28 100 22 145 -59 l26 -46 -27 -10 c-15 -6 -29 -8 -32 -5 -3 2 -11 0 -19 -6
-7 -6 -22 -9 -34 -6 -12 3 -18 3 -14 -1 11 -11 -69 -29 -88 -20 -16 8 -17 7
-7 -11 6 -12 12 -21 14 -21 1 0 40 11 86 25 93 28 98 29 85 16 -15 -13 -160
-53 -180 -50 -26 6 -81 109 -63 120 10 7 9 9 -4 9 -22 0 -33 -19 -19 -33 6 -6
11 -18 11 -27 0 -8 9 -32 19 -52 11 -19 17 -38 15 -41 -10 -10 129 29 334 94
112 35 199 65 193 67 -5 2 -53 -10 -106 -27 -52 -17 -104 -31 -115 -31 -22 0
-64 53 -74 92 -3 15 -16 33 -27 39 -17 9 -19 13 -8 20 17 10 7 10 -44 -2z"/>
<path d="M1245 1329 c-16 -5 -38 -7 -48 -5 -11 3 -16 2 -13 -1 7 -8 -60 -33
-87 -33 -10 0 -16 -4 -13 -9 5 -7 202 42 214 54 8 8 -19 4 -53 -6z"/>
<path d="M1023 1283 c8 -12 -47 -35 -58 -25 -3 4 -10 0 -15 -8 -5 -8 -24 -14
-44 -14 -20 0 -36 -3 -36 -8 0 -4 -16 -10 -35 -14 -31 -5 -60 -24 -38 -24 22
0 83 22 83 30 0 4 8 6 18 3 19 -5 128 32 137 47 3 5 0 12 -6 16 -7 4 -9 3 -6
-3z"/>
<path d="M2447 1219 c34 -35 65 -60 69 -56 8 7 -44 59 -97 96 -23 16 -13 2 28
-40z"/>
<path d="M2110 1252 c0 -6 5 -14 11 -17 7 -5 5 -13 -6 -24 -14 -16 -13 -20 7
-47 30 -39 48 -51 81 -58 38 -8 69 7 89 42 16 26 16 31 3 42 -8 7 -15 20 -15
30 0 21 -56 24 -64 3 -3 -7 -14 -13 -25 -13 -29 0 -36 -18 -15 -41 11 -12 28
-19 43 -17 33 4 40 28 7 28 -38 0 -39 16 -1 27 38 12 55 2 55 -33 0 -29 -24
-47 -61 -46 -57 1 -106 54 -80 86 8 10 6 18 -9 31 -11 10 -20 13 -20 7z"/>
<path d="M1784 1210 c-33 -10 -70 -23 -82 -29 -11 -6 -32 -11 -46 -11 -17 0
-26 -6 -26 -16 0 -10 4 -12 13 -7 6 4 62 24 122 45 114 38 126 49 19 18z"/>
<path d="M2830 1215 c0 -8 4 -15 9 -15 5 0 36 -22 68 -49 43 -36 63 -47 74
-40 12 7 12 9 -1 9 -8 0 -42 25 -75 55 -64 58 -75 64 -75 40z"/>
<path d="M647 1172 c2 -15 0 -21 -7 -17 -5 3 -10 1 -10 -5 0 -11 15 -9 68 11
33 13 27 21 -12 14 -24 -5 -35 -3 -39 7 -2 7 -2 2 0 -10z"/>
<path d="M2045 1190 c-4 -6 -18 -10 -31 -7 -13 2 -24 1 -24 -4 0 -9 102 -40
109 -33 3 2 -7 16 -21 30 -18 19 -28 23 -33 14z"/>
<path d="M1949 1181 c11 -7 11 -9 0 -14 -8 -3 -9 -6 -2 -6 16 -1 86 -98 79
-110 -3 -5 3 -7 14 -4 11 3 17 10 13 17 -12 22 -68 91 -75 94 -5 2 -8 10 -8
18 0 8 -8 14 -17 14 -14 0 -15 -2 -4 -9z"/>
<path d="M554 1165 c-15 -11 -16 -15 -4 -15 8 0 2 -8 -13 -16 -38 -21 -30 -26
19 -13 69 18 71 19 54 29 -8 6 -19 10 -25 10 -5 0 -3 -5 5 -10 8 -5 10 -10 4
-10 -18 0 -24 13 -13 27 15 18 -2 17 -27 -2z"/>
<path d="M1884 1153 c4 -5 11 -8 16 -8 4 0 25 -24 45 -54 30 -43 34 -55 24
-63 -10 -6 -6 -7 11 -2 14 3 26 8 28 9 6 6 -71 106 -88 115 -22 12 -47 13 -36
3z"/>
<path d="M1557 1137 c2 -4 -9 -10 -26 -13 -17 -4 -31 -9 -31 -13 1 -15 20 -35
27 -28 4 5 1 13 -7 18 -11 8 -9 9 11 5 17 -4 31 -1 39 9 7 8 18 15 26 15 7 0
15 4 18 8 3 5 -10 8 -29 8 -18 -1 -31 -4 -28 -9z"/>
<path d="M2533 1136 c20 -15 23 -59 5 -74 -7 -6 -105 -45 -218 -87 -407 -152
-556 -213 -537 -220 11 -5 82 18 195 63 195 77 232 89 232 75 0 -8 -109 -52
-377 -152 -36 -13 -45 -13 -67 -1 -22 11 -30 11 -51 0 -14 -7 -25 -17 -25 -22
0 -5 9 -4 19 2 23 12 37 -3 18 -17 -6 -6 -65 -29 -130 -53 -105 -39 -119 -42
-135 -28 -15 14 -35 8 -202 -53 -158 -57 -185 -70 -185 -88 0 -11 -5 -25 -10
-30 -6 -5 -66 -31 -135 -57 -73 -29 -116 -50 -104 -52 18 -3 234 77 534 198
52 21 156 61 230 89 74 28 143 56 152 61 10 6 22 10 28 10 24 0 470 183 465
191 -4 5 1 6 9 3 11 -4 13 0 9 15 -3 13 0 22 8 23 33 3 59 12 99 32 14 8 52
22 85 32 33 10 70 27 83 39 47 40 52 98 9 108 -20 6 -20 5 -4 -7z m-1122 -550
c-18 -22 -258 -108 -281 -101 -11 4 -18 11 -14 16 3 5 10 7 15 3 8 -5 228 74
269 96 20 11 26 4 11 -14z"/>
<path d="M844 1125 c-3 -8 -3 -18 0 -23 3 -5 -6 -14 -19 -20 -20 -9 -25 -9
-25 3 0 7 -4 16 -9 19 -4 3 -6 -6 -3 -19 5 -27 21 -32 40 -13 13 13 42 -6 42
-29 0 -8 5 -11 10 -8 7 4 3 19 -11 41 -11 19 -18 41 -15 49 3 8 3 15 0 15 -2
0 -7 -7 -10 -15z"/>
<path d="M1815 1132 c-2 -2 2 -11 10 -18 7 -8 15 -19 17 -26 3 -7 11 -9 24 -3
10 4 22 7 27 7 11 -3 8 11 -7 31 -12 15 -14 16 -20 2 -3 -8 -10 -15 -15 -15
-6 0 -8 6 -5 13 4 13 -20 20 -31 9z"/>
<path d="M219 1112 c-15 -13 -19 -21 -11 -26 7 -4 12 -1 12 7 0 18 27 30 33
14 2 -6 6 -4 10 6 9 23 -14 22 -44 -1z"/>
<path d="M1756 1114 c-3 -9 -13 -14 -20 -11 -8 3 -26 -3 -40 -14 -18 -14 -26
-16 -29 -7 -4 10 -6 10 -6 0 -1 -10 -6 -10 -21 -2 -16 9 -20 8 -20 -5 0 -8 9
-15 20 -15 12 0 24 -10 30 -22 5 -13 18 -36 29 -53 25 -37 26 -45 4 -45 -12 0
-29 20 -47 55 -16 31 -37 60 -48 66 -20 11 -61 3 -53 -11 3 -4 1 -19 -4 -32
-9 -23 -9 -23 -27 9 -20 34 -38 45 -27 17 5 -14 1 -16 -20 -12 -19 4 -27 1
-27 -9 0 -10 -9 -13 -27 -11 -18 2 -34 -4 -46 -17 -14 -15 -20 -16 -26 -6 -6
10 -10 9 -15 -4 -11 -30 -6 -72 10 -86 8 -7 13 -21 10 -32 -3 -14 0 -17 11
-13 11 5 13 2 9 -9 -10 -27 34 -35 60 -12 13 11 21 23 19 27 -3 5 2 10 10 14
8 3 15 12 15 21 0 8 7 15 15 15 8 0 15 -9 15 -21 0 -11 5 -17 10 -14 6 3 13
-1 16 -10 5 -13 12 -9 32 19 26 37 37 43 47 26 10 -16 42 -11 50 7 6 16 8 15
26 -7 12 -14 18 -19 14 -12 -10 20 29 52 64 52 40 0 79 19 86 41 8 24 -55 121
-74 114 -9 -4 -11 0 -7 10 3 8 1 15 -3 15 -5 0 -12 -7 -15 -16z m20 -43 c-4
-6 -18 -11 -32 -11 -13 0 -24 -5 -24 -11 0 -7 14 -8 40 -4 45 8 70 -5 70 -36
0 -23 -29 -39 -69 -39 -21 0 -31 5 -31 15 0 10 10 15 29 15 17 0 33 5 37 11 4
7 -9 10 -42 8 -35 -2 -50 1 -57 13 -15 24 -1 46 35 56 34 10 55 1 44 -17z
m-155 -63 c12 -24 28 -51 37 -60 13 -16 13 -18 -3 -24 -17 -7 -38 11 -47 38
-4 11 -58 -11 -58 -23 0 -4 5 -11 10 -14 15 -9 12 -32 -5 -39 -11 -4 -23 10
-42 52 -15 31 -29 60 -30 63 -2 4 3 9 11 12 10 4 21 -3 29 -20 9 -16 17 -22
21 -14 4 6 16 11 27 11 21 0 25 10 8 27 -12 12 -4 33 11 33 5 0 19 -19 31 -42z
m-147 -39 c20 -29 11 -46 -30 -59 -34 -11 -34 -13 -20 -35 15 -23 12 -35 -10
-35 -11 0 -64 99 -64 119 0 8 57 28 87 30 12 0 28 -8 37 -20z"/>
<path d="M1401 951 c-7 -5 -11 -14 -7 -20 8 -12 56 6 56 21 0 11 -31 10 -49
-1z"/>
<path d="M2065 1100 c31 -32 51 -39 41 -15 -6 17 9 21 19 5 7 -12 35 -13 35
-2 0 8 -95 42 -115 42 -5 0 4 -13 20 -30z"/>
<path d="M1456 1108 c5 -7 1 -9 -9 -5 -10 3 -17 2 -17 -3 0 -6 -15 -10 -33
-10 -19 0 -47 -10 -65 -24 -27 -19 -30 -25 -18 -35 11 -9 14 -8 12 5 0 10 7
18 19 19 11 2 34 7 50 13 17 5 44 7 60 5 26 -4 30 -1 31 19 1 17 -4 24 -17 25
-12 1 -17 -3 -13 -9z"/>
<path d="M1157 1103 c-4 -6 -22 -14 -40 -17 -19 -3 -42 -13 -53 -21 -19 -14
-18 -14 2 -15 12 0 50 11 85 25 35 14 54 24 42 21 -12 -2 -24 1 -26 7 -2 8 -5
8 -10 0z"/>
<path d="M266 1091 c-29 -6 -49 -31 -25 -31 9 0 10 -3 2 -11 -5 -5 -29 -11
-52 -12 -22 -1 -41 -5 -41 -9 0 -12 50 -8 89 6 22 8 31 15 23 20 -18 11 -14
26 7 26 11 0 23 5 26 10 3 6 5 9 3 9 -2 -1 -16 -4 -32 -8z"/>
<path d="M996 1073 c-13 -13 -6 -35 9 -29 13 5 13 2 -1 -19 -9 -13 -26 -27
-37 -30 -12 -4 -64 -20 -116 -36 -108 -35 -136 -33 -146 11 -4 16 -10 32 -14
34 -9 6 -8 -40 1 -49 8 -8 -2 -37 -16 -47 -14 -10 -200 -68 -217 -68 -29 0 11
19 103 49 101 34 121 52 98 88 -10 17 -11 16 -7 -2 5 -24 -5 -34 -52 -57 -26
-12 -37 -13 -47 -5 -10 10 -10 14 4 25 14 11 14 14 1 27 -13 13 -15 13 -17 -5
-1 -11 -3 -29 -4 -39 -2 -13 -20 -28 -50 -42 -26 -12 -48 -26 -48 -30 0 -18
34 -27 59 -16 19 9 25 9 29 -1 3 -9 7 -8 19 3 8 8 25 15 39 15 13 0 24 4 24
10 0 16 71 24 82 9 8 -11 9 -10 4 3 -3 11 2 19 15 23 10 4 16 11 13 17 -4 6
-3 8 3 5 6 -4 89 18 184 49 210 67 230 75 167 67 -43 -5 -48 -4 -48 15 0 20
-22 36 -34 25z"/>
<path d="M1895 1068 c-30 -16 -30 -16 -11 -37 17 -18 17 -20 -1 -29 -10 -6
-15 -14 -11 -18 12 -12 39 18 33 37 -3 9 -1 20 5 24 5 3 10 2 10 -3 0 -6 7
-12 15 -16 20 -7 19 4 -3 31 -14 18 -21 20 -37 11z"/>
<path d="M2890 1077 c13 -14 83 -58 86 -54 7 7 -41 45 -66 52 -14 4 -23 5 -20
2z"/>
<path d="M358 1038 c-21 -6 -38 -14 -38 -19 0 -12 -3 -12 55 11 53 20 45 24
-17 8z"/>
<path d="M799 1033 c6 -13 16 -23 21 -23 15 0 12 -20 -2 -20 -18 -1 -96 -39
-80 -40 25 0 242 72 242 80 0 5 -20 3 -44 -4 -25 -8 -47 -11 -50 -8 -3 2 -13
-1 -23 -9 -14 -12 -15 -12 -9 0 6 9 5 12 -5 9 -8 -3 -25 4 -38 16 l-24 21 12
-22z"/>
<path d="M477 1028 c-3 -11 -2 -18 4 -18 7 0 9 -8 5 -20 -16 -53 -18 -64 -11
-58 4 4 14 0 21 -10 8 -9 14 -12 14 -5 0 6 -4 15 -10 18 -17 11 -11 31 13 43
14 7 17 11 6 11 -8 1 -20 13 -25 29 -8 23 -11 24 -17 10z"/>
<path d="M2630 1020 c-6 -11 -16 -20 -23 -20 -7 0 -57 -18 -112 -39 -55 -22
-125 -49 -155 -59 -87 -32 -1030 -402 -1077 -423 -24 -10 -47 -19 -52 -19 -4
0 -88 -32 -185 -70 -175 -69 -209 -79 -220 -61 -3 5 -15 7 -26 4 -11 -3 -27 0
-35 7 -8 7 -15 8 -15 4 0 -13 39 -36 50 -29 4 3 10 -1 12 -7 4 -11 14 -10 52
0 26 7 52 9 58 6 7 -4 8 -2 4 4 -4 7 -1 12 9 12 9 0 26 7 39 15 12 8 55 26 96
40 40 14 79 30 86 36 7 6 18 8 24 4 5 -3 10 -1 10 5 0 6 5 8 10 5 6 -3 10 -2
10 2 0 13 86 34 107 27 14 -5 15 -4 4 4 -11 8 -9 11 10 17 13 4 43 15 66 26
48 21 70 17 76 -14 4 -21 4 -21 6 1 1 18 6 23 24 20 14 -2 22 -10 23 -23 2
-38 4 -45 13 -45 12 0 2 82 -12 95 -7 7 -8 6 -3 -2 4 -8 1 -13 -8 -13 -39 0
-9 21 62 44 109 35 146 50 153 60 4 5 14 6 22 3 8 -3 23 3 32 13 22 25 65 35
77 18 7 -9 8 -8 4 6 -5 14 -2 17 9 12 9 -3 14 -2 11 3 -3 5 1 12 10 15 23 9
27 8 21 -8 -4 -10 0 -12 14 -9 15 4 17 9 10 16 -14 14 -14 27 0 27 5 0 7 -6 3
-12 -5 -9 -2 -9 9 1 9 7 17 10 17 7 0 -4 7 0 16 8 12 13 20 14 37 4 21 -10 21
-10 7 7 -14 17 -13 18 20 13 49 -7 65 -1 48 20 -11 14 -10 15 6 9 10 -4 25 -2
32 4 7 6 18 8 23 4 7 -3 8 0 5 9 -4 11 2 14 25 14 17 -1 31 -6 31 -11 0 -6 3
-7 6 -4 4 4 2 13 -5 21 -9 11 -8 15 5 20 9 3 20 4 25 0 5 -3 9 0 9 5 0 6 10
11 23 11 16 0 35 -16 62 -51 22 -29 41 -47 43 -41 2 7 -10 26 -27 44 -32 34
-43 75 -17 65 8 -3 16 -2 18 2 3 8 50 27 197 79 62 22 121 60 121 77 0 13 -21
2 -30 -15z"/>
<path d="M240 1003 c-30 -9 -65 -16 -77 -17 -25 -1 -41 -26 -17 -26 8 0 13 -4
10 -9 -4 -5 3 -7 14 -4 11 3 17 9 15 14 -3 4 20 16 52 25 32 9 62 20 68 25 12
12 1 11 -65 -8z"/>
<path d="M1023 977 c-56 -17 -100 -34 -97 -39 3 -4 -5 -9 -18 -10 -13 0 -27
-2 -33 -3 -5 -2 -20 -3 -33 -4 -13 0 -20 -6 -17 -11 3 -6 18 -7 33 -4 15 3 42
8 60 11 17 3 32 9 32 13 0 4 8 11 18 14 9 3 0 -10 -21 -29 -21 -20 -35 -41
-31 -47 5 -7 0 -9 -15 -5 -19 5 -20 3 -10 -10 8 -9 9 -17 3 -21 -5 -4 -10 -18
-11 -32 0 -14 -4 -36 -8 -49 -6 -18 -5 -22 4 -16 9 5 12 2 9 -11 -4 -21 42
-74 80 -93 32 -17 121 -30 128 -20 10 16 23 9 17 -8 -5 -17 -5 -16 8 0 13 17
33 24 67 26 6 1 12 8 12 18 0 9 3 14 6 10 8 -8 33 16 27 26 -2 4 0 7 6 7 17 0
43 48 52 95 9 47 -6 100 -35 124 -8 7 -14 18 -12 24 1 7 1 9 -1 5 -9 -15 -35
-8 -29 7 8 21 -33 48 -51 33 -7 -6 -16 -8 -20 -4 -3 3 -1 6 7 6 10 0 10 3 0
15 -15 18 -3 20 -127 -18z m157 -53 c158 -63 67 -284 -117 -284 -62 0 -110 29
-137 84 -16 33 -17 43 -6 79 31 107 153 164 260 121z"/>
<path d="M1073 894 c-4 -10 0 -21 9 -28 13 -9 48 -95 48 -117 0 -16 -32 -39
-54 -39 -30 0 -56 28 -37 39 9 6 5 13 -13 25 -30 19 -32 10 -12 -39 17 -39 53
-54 91 -37 34 16 41 55 21 116 -9 28 -15 60 -14 71 4 25 -30 33 -39 9z"/>
<path d="M2710 973 c0 -13 6 -23 13 -23 7 0 44 -32 82 -71 66 -66 72 -70 108
-66 48 6 52 10 27 32 -18 17 -20 17 -14 2 5 -13 2 -16 -12 -11 -16 5 -16 4 -4
-5 13 -9 13 -11 -1 -11 -9 0 -58 40 -108 88 -77 75 -91 85 -91 65z"/>
<path d="M328 949 c2 -21 8 -37 12 -34 4 2 10 -17 13 -43 7 -59 -3 -70 -86
-98 -54 -18 -59 -21 -35 -26 15 -3 25 -1 22 4 -3 5 5 6 18 3 23 -6 52 10 87
48 15 17 23 77 9 77 -3 0 -4 8 -1 18 2 10 -2 24 -11 31 -8 7 -13 18 -10 25 3
7 -1 18 -8 24 -11 8 -13 3 -10 -29z"/>
<path d="M150 900 c6 -11 7 -20 3 -20 -15 0 -32 -58 -19 -63 6 -3 12 6 13 21
1 25 20 44 38 38 6 -2 9 -9 7 -16 -1 -6 5 -10 14 -8 10 2 19 9 20 16 1 7 0 8
-3 2 -3 -8 -9 -7 -19 1 -8 6 -11 15 -8 20 3 5 -2 6 -10 3 -9 -3 -16 -2 -16 4
0 5 -7 12 -15 16 -13 4 -14 2 -5 -14z"/>
<path d="M2724 908 c-4 -6 -3 -9 2 -5 5 3 18 -1 29 -9 10 -8 15 -14 11 -14 -4
0 16 -24 46 -52 29 -29 52 -57 50 -61 -1 -5 2 -6 7 -2 13 7 71 -43 71 -62 0
-7 7 -16 15 -19 8 -4 12 -11 8 -18 -3 -6 -3 -8 2 -4 4 4 14 3 22 -3 9 -8 13
-8 13 -1 0 6 -11 19 -25 30 -13 11 -29 31 -34 45 -8 20 -6 29 14 47 30 28 22
47 -11 26 -43 -29 -68 -20 -135 49 -66 68 -73 73 -85 53z"/>
<path d="M2960 891 c-8 -6 -18 -7 -23 -4 -5 3 -4 -4 3 -17 7 -13 17 -19 27
-16 8 3 17 6 19 6 2 0 4 5 4 11 0 8 -4 9 -13 0 -8 -6 -17 -8 -20 -4 -4 3 1 12
11 19 19 15 14 18 -8 5z"/>
<path d="M311 878 c6 -49 -23 -78 -78 -78 -13 0 -23 -4 -23 -10 0 -5 -7 -10
-15 -10 -19 0 -90 -29 -84 -34 2 -2 49 11 103 29 68 22 102 38 107 51 11 28
10 64 -1 64 -6 0 -10 -6 -9 -12z"/>
<path d="M1930 879 c-14 -6 -33 -8 -42 -5 -10 2 -16 0 -13 -5 3 -4 -7 -11 -22
-15 -15 -3 -43 -10 -60 -16 -18 -5 -37 -7 -43 -3 -13 8 -13 -15 0 -35 8 -12
12 -13 19 -2 4 8 11 13 15 13 16 -3 56 12 56 21 0 5 8 8 18 7 23 -4 62 10 62
22 0 5 6 9 13 8 6 -1 23 3 37 9 21 9 22 11 5 11 -11 0 -31 -5 -45 -10z"/>
<path d="M716 863 c-10 -11 -7 -23 7 -23 8 0 19 -12 26 -26 6 -15 14 -24 17
-21 6 5 -13 43 -32 64 -7 6 -14 9 -18 6z"/>
<path d="M1680 846 c5 -13 7 -26 4 -29 -3 -2 7 -12 21 -21 32 -21 32 -11 0 37
-30 43 -38 47 -25 13z"/>
<path d="M676 834 c9 -37 24 -67 31 -61 2 3 0 14 -6 25 -6 11 -8 22 -4 25 3 3
-2 14 -11 23 -16 15 -17 15 -10 -12z"/>
<path d="M659 794 c-5 -15 2 -27 22 -43 26 -20 43 -71 20 -57 -5 3 -14 -1 -21
-9 -6 -7 -18 -11 -26 -8 -9 3 -14 -1 -14 -12 0 -12 -6 -16 -20 -12 -23 6 -27
-8 -5 -17 23 -8 18 -28 -6 -24 -26 4 -33 15 -53 83 l-15 50 6 -60 c3 -33 7
-63 9 -66 10 -17 -31 -42 -116 -71 -91 -30 -149 -58 -122 -58 7 0 57 13 112
29 98 30 140 56 140 87 0 12 3 14 13 6 17 -14 50 -18 66 -7 10 5 16 4 19 -3 2
-7 8 -12 13 -12 6 0 7 5 3 12 -5 7 -2 9 9 5 9 -3 17 -1 20 6 9 29 28 -40 30
-110 1 -42 3 -69 5 -60 2 10 6 17 8 17 12 0 35 -31 30 -39 -3 -5 4 -7 16 -4
18 4 20 3 8 -6 -8 -6 -15 -16 -15 -23 0 -7 -6 -13 -14 -13 -8 0 -16 -6 -18
-12 -5 -15 8 -17 22 -5 6 5 57 26 115 47 131 48 160 62 160 79 0 10 -28 3
-103 -24 -155 -57 -178 -46 -204 96 -9 49 -18 91 -20 93 -1 2 -18 -4 -37 -13
-42 -20 -56 -20 -56 -2 0 8 10 17 23 21 52 15 63 25 59 55 -2 16 -15 36 -27
44 -13 9 -25 26 -27 38 -3 22 -4 22 -9 2z"/>
<path d="M2972 775 c-28 -35 -27 -36 3 -65 19 -18 25 -20 25 -8 0 9 -7 21 -15
28 -14 12 -14 15 1 31 9 10 14 23 12 30 -2 7 -13 1 -26 -16z"/>
<path d="M734 777 c-6 -7 -9 -17 -8 -22 1 -6 5 -22 8 -37 8 -34 22 -36 28 -4
4 17 1 23 -9 19 -7 -3 -13 2 -13 12 0 9 4 14 9 11 5 -4 7 3 4 14 -6 23 -5 23
-19 7z"/>
<path d="M1535 743 c-11 -3 -25 -10 -32 -15 -7 -5 -17 -7 -23 -3 -5 3 -10 2
-10 -4 0 -6 -7 -8 -15 -5 -9 4 -15 0 -15 -10 0 -9 -4 -16 -10 -16 -5 0 -10 6
-10 13 0 8 -3 9 -8 1 -7 -11 -99 -56 -139 -68 -24 -8 -30 -21 -14 -31 17 -10
277 101 309 132 15 14 7 16 -33 6z"/>
<path d="M340 732 c0 -6 5 -12 11 -12 7 0 10 -18 7 -50 -1 -28 0 -50 5 -50 4
0 7 15 7 33 0 25 3 29 11 17 8 -11 9 -9 4 10 -8 28 -45 71 -45 52z"/>
<path d="M2306 728 c5 -8 2 -9 -11 -4 -15 5 -16 4 -5 -9 16 -19 30 -19 30 -1
0 8 8 17 18 19 10 3 6 5 -11 6 -19 1 -26 -3 -21 -11z"/>
<path d="M324 694 c3 -8 2 -24 -4 -34 -7 -13 -6 -19 5 -24 12 -4 15 3 15 34 0
23 -5 40 -11 40 -6 0 -8 -7 -5 -16z"/>
<path d="M2259 703 c0 -5 -2 -16 -4 -27 -7 -36 4 -45 42 -34 24 7 39 6 46 -1
6 -6 16 -11 22 -11 5 0 3 5 -5 10 -13 9 -13 12 3 24 24 18 22 29 -4 16 -15 -8
-24 -8 -34 0 -10 8 -13 7 -11 -7 0 -12 -6 -18 -19 -18 -16 0 -20 6 -18 28 1
15 -2 27 -8 27 -5 0 -9 -3 -10 -7z"/>
<path d="M1515 666 c-22 -6 -38 -16 -35 -21 7 -13 34 -9 84 14 34 16 37 19 16
19 -14 0 -43 -5 -65 -12z"/>
<path d="M501 661 c-11 -7 -11 -9 0 -14 11 -4 11 -6 1 -6 -7 -1 -11 -5 -8 -9
3 -5 -34 -24 -82 -42 -99 -37 -132 -55 -132 -72 0 -7 7 -5 18 4 9 9 61 30 115
48 99 32 111 42 105 79 -2 14 -7 18 -17 12z"/>
<path d="M750 651 c0 -9 8 -51 18 -93 16 -70 19 -75 35 -64 9 7 17 19 17 27 0
8 -6 6 -15 -7 -14 -19 -14 -19 -16 1 -1 11 -2 28 -1 38 1 9 -2 17 -7 17 -5 0
-8 22 -6 48 2 36 -1 49 -11 49 -8 0 -14 -7 -14 -16z"/>
<path d="M2690 650 c0 -5 -6 -10 -14 -10 -17 0 -29 -42 -15 -51 5 -3 9 -10 7
-15 -1 -5 21 -32 48 -61 38 -39 48 -55 40 -64 -8 -9 -5 -10 12 -6 13 3 22 3
19 0 -3 -2 9 -18 26 -35 18 -17 24 -25 15 -18 -24 17 -23 4 3 -23 19 -20 20
-20 13 -2 -7 19 -6 19 12 4 29 -25 71 -32 78 -13 4 10 0 15 -12 13 -9 -1 -24
-1 -33 0 -19 1 -209 225 -209 246 0 9 9 19 20 22 11 3 17 9 14 14 -7 12 -24
11 -24 -1z"/>
<path d="M1216 614 c-4 -9 -13 -14 -21 -10 -9 3 -15 -1 -15 -10 0 -12 -6 -15
-24 -10 -16 4 -26 1 -30 -9 -3 -8 -14 -15 -23 -15 -10 0 -27 -6 -38 -13 -11
-8 -42 -20 -70 -27 -27 -7 -55 -17 -62 -22 -7 -5 -22 -7 -35 -3 -19 5 -20 4
-8 -5 12 -10 11 -11 -7 -7 -13 3 -21 0 -20 -6 1 -6 -7 -12 -18 -14 -15 -3 -16
-2 -7 5 11 7 11 10 -3 15 -9 4 -13 3 -10 -2 3 -5 1 -12 -5 -16 -5 -3 -10 -1
-10 5 0 6 -5 8 -12 4 -13 -9 18 -34 41 -34 35 1 396 149 399 163 4 21 -15 30
-22 11z"/>
<path d="M2378 612 c-7 -10 -31 -25 -53 -34 -54 -21 -169 -71 -174 -75 -3 -2
1 -9 7 -15 8 -8 12 -8 12 -1 0 6 16 14 35 17 19 4 41 14 50 22 13 14 29 20 57
23 4 1 14 9 23 18 9 9 30 16 46 16 21 0 26 4 19 12 -6 7 -5 16 2 23 9 9 9 12
1 12 -7 0 -18 -8 -25 -18z"/>
<path d="M2710 621 c0 -18 190 -231 206 -231 20 0 3 32 -32 59 -15 12 -25 23
-22 26 5 5 -102 120 -134 144 -13 10 -18 10 -18 2z"/>
<path d="M177 613 c-4 -3 -7 -34 -7 -69 0 -34 -3 -69 -6 -77 -3 -9 -41 -28
-85 -43 -89 -32 -108 -51 -27 -27 122 37 129 44 132 149 2 41 2 74 1 74 -1 0
-5 -3 -8 -7z"/>
<path d="M120 547 c0 -54 -5 -63 -33 -58 -5 1 -6 -3 -2 -9 3 -5 -2 -13 -12
-16 -45 -15 -73 -30 -73 -37 0 -10 40 1 55 14 5 5 16 9 25 9 32 0 52 36 52 90
-1 29 -3 55 -6 58 -3 3 -6 -20 -6 -51z"/>
<path d="M2903 588 c-22 -28 -24 -38 -9 -32 9 3 16 12 16 20 0 17 12 18 28 2
8 -8 12 -8 12 -1 0 6 -7 14 -16 17 -21 8 -20 8 -31 -6z"/>
<path d="M1700 563 c0 -21 82 -174 96 -180 9 -3 30 1 47 10 l32 17 -30 -6
c-24 -4 -27 -3 -15 6 12 9 11 10 -6 5 -26 -7 -51 15 -60 51 -3 13 -10 24 -15
24 -5 0 -6 7 -3 15 4 8 1 15 -5 15 -6 0 -11 5 -11 11 0 6 -7 17 -15 25 -8 9
-15 12 -15 7z"/>
<path d="M1650 549 c-11 -8 -12 -12 -2 -16 6 -2 10 -9 7 -14 -4 -5 2 -6 11 -2
12 4 15 3 10 -6 -9 -14 20 -81 35 -81 6 0 7 -4 4 -10 -3 -5 -2 -10 3 -10 16 0
24 -33 10 -43 -9 -6 -7 -7 6 -3 11 4 26 0 37 -10 14 -12 28 -15 55 -10 44 9
37 21 -10 18 -40 -3 -53 12 -110 126 -20 39 -37 72 -39 72 -1 0 -9 -5 -17 -11z"/>
<path d="M2098 518 c-11 -9 -26 -14 -34 -11 -8 3 -14 1 -14 -5 0 -11 -68 -38
-83 -34 -5 1 -6 -2 -2 -8 3 -5 -1 -10 -10 -10 -19 0 -79 -30 -72 -36 4 -4 265
110 275 121 13 13 -43 -2 -60 -17z"/>
<path d="M1470 481 c-13 -26 -14 -52 0 -31 9 14 14 7 11 -13 -1 -5 3 -6 9 -2
7 4 7 12 0 26 -6 11 -8 24 -5 29 3 6 4 10 1 10 -3 0 -10 -9 -16 -19z"/>
<path d="M2085 477 c-27 -12 -53 -25 -56 -30 -3 -5 -10 -8 -15 -8 -17 1 -44
-10 -44 -20 0 -12 17 -12 24 0 3 5 22 12 41 15 20 4 38 13 41 21 3 8 12 11 20
8 12 -4 52 24 43 31 -2 2 -26 -6 -54 -17z"/>
<path d="M499 483 c-1 -5 -1 -12 0 -17 1 -5 -5 -6 -14 -3 -8 4 -15 3 -15 -2 0
-4 -11 -13 -23 -20 -18 -9 -23 -19 -19 -37 2 -13 -2 -32 -9 -41 -12 -15 -12
-16 4 -10 10 4 16 3 13 -2 -3 -5 2 -15 11 -22 13 -11 17 -11 20 -1 3 6 15 12
27 12 13 0 31 9 41 20 11 12 13 20 6 20 -7 0 -9 5 -5 11 3 6 1 15 -7 19 -10 7
-10 11 0 24 21 25 -3 19 -27 -7 -28 -30 -28 -33 3 -41 14 -4 25 -11 25 -17 0
-6 -6 -9 -12 -6 -48 19 -48 19 -48 -2 0 -41 -18 -21 -22 24 -2 36 0 44 11 40
17 -7 48 24 48 48 0 17 -6 24 -8 10z"/>
<path d="M647 450 c4 -25 7 -63 8 -85 0 -36 -2 -40 -23 -38 -13 2 -21 -1 -17
-7 3 -5 -7 -12 -22 -16 -33 -7 -184 -76 -179 -81 2 -2 41 11 87 28 46 17 99
37 118 44 55 20 61 35 45 117 -15 78 -29 110 -17 38z"/>
<path d="M680 457 c0 -7 5 -39 10 -70 8 -38 8 -63 1 -76 -15 -27 -260 -124
-278 -110 -9 8 -13 8 -13 1 0 -16 39 -25 53 -13 12 9 74 23 102 23 6 -1 14 6
18 14 5 8 12 12 16 10 5 -3 32 7 62 22 39 20 53 33 51 46 -3 14 0 16 17 7 30
-17 38 -13 13 5 -15 10 -21 22 -17 32 3 8 1 30 -6 49 -8 24 -8 37 0 47 12 14
5 26 -16 26 -7 0 -13 -6 -13 -13z"/>
<path d="M2057 409 c-3 -12 -2 -32 3 -45 11 -27 0 -37 -27 -27 -17 7 -17 6 0
-11 9 -9 17 -22 17 -27 0 -5 5 -9 11 -9 6 0 8 9 4 20 -4 11 -2 20 4 20 6 0 14
-12 17 -26 4 -14 17 -30 30 -34 13 -5 24 -15 24 -21 0 -8 -4 -8 -15 1 -16 14
-20 3 -6 -19 5 -7 14 -10 20 -7 6 4 11 4 10 -1 -3 -19 2 -34 9 -29 5 3 14 -11
21 -30 7 -19 17 -32 22 -29 5 3 6 0 3 -8 -3 -8 2 -17 10 -20 9 -4 16 -13 16
-21 0 -7 9 -16 21 -19 12 -3 18 -10 14 -16 -3 -6 -2 -11 4 -11 5 0 13 5 16 10
3 6 2 10 -3 10 -18 0 -214 330 -209 351 3 10 2 19 -3 19 -4 0 -10 -9 -13 -21z"/>
<path d="M1895 394 c-28 -12 -42 -23 -33 -23 9 -1 25 -4 35 -7 15 -5 15 -4 3
5 -13 9 -13 11 2 11 9 0 18 6 21 13 3 9 7 9 19 -1 19 -15 32 -2 14 14 -9 8
-25 5 -61 -12z"/>
<path d="M1508 398 c5 -7 8 -31 7 -53 -3 -26 -1 -34 6 -25 5 8 9 32 9 53 0 27
-4 37 -16 37 -12 0 -14 -3 -6 -12z"/>
<path d="M1550 374 c0 -22 -5 -45 -11 -51 -7 -7 -7 -13 -1 -17 14 -9 36 84 23
97 -8 8 -11 -1 -11 -29z"/>
<path d="M2112 369 c71 -126 186 -294 203 -297 18 -3 18 -2 -2 13 -13 9 -23
22 -23 28 0 7 -11 25 -25 41 -14 16 -30 44 -37 62 -7 19 -16 34 -20 34 -4 0
-8 6 -8 14 0 7 -7 19 -16 27 -8 7 -13 21 -11 31 3 11 0 18 -9 18 -8 0 -22 16
-31 35 -9 19 -23 35 -30 35 -11 0 -8 -11 9 -41z"/>
<path d="M2601 373 c-19 -21 0 -39 26 -24 10 6 13 11 6 11 -6 0 -13 6 -15 14
-2 12 -5 12 -17 -1z"/>
<path d="M1069 371 c7 -5 11 -13 7 -19 -3 -6 -2 -13 4 -17 5 -3 10 -17 10 -30
0 -13 4 -27 10 -30 6 -3 7 1 4 10 -4 8 -1 22 6 30 10 12 9 15 -4 15 -9 0 -16
5 -16 10 0 6 14 10 30 10 35 0 38 -10 10 -35 -22 -20 -18 -37 6 -28 8 3 13 11
10 19 -3 7 0 15 7 17 23 8 -8 42 -37 40 -14 -1 -26 2 -26 8 0 5 -8 9 -17 9
-14 0 -15 -2 -4 -9z"/>
<path d="M2555 344 c-11 -13 -31 -26 -44 -29 -36 -9 -51 -34 -38 -62 6 -13 15
-23 21 -23 6 0 5 5 -2 12 -15 15 -16 48 -2 48 6 0 10 -6 10 -14 0 -8 4 -17 9
-21 6 -3 9 7 8 22 -1 16 3 28 10 28 7 0 21 8 32 17 11 9 22 14 25 11 9 -9 7
10 -2 23 -5 8 -14 4 -27 -12z"/>
<path d="M234 270 c3 -47 2 -90 -2 -95 -4 -6 -24 -18 -46 -28 -54 -25 -39 -32
18 -8 l46 20 0 83 c0 46 -5 90 -10 98 -7 10 -8 -13 -6 -70z"/>
<path d="M280 270 c0 -78 13 -106 26 -56 5 23 -12 136 -22 136 -2 0 -4 -36 -4
-80z"/>
<path d="M2610 323 c0 -7 5 -15 11 -18 6 -5 4 -12 -8 -20 -15 -11 -21 -11 -35
2 -15 13 -16 13 -11 -6 4 -15 -1 -23 -17 -29 -19 -7 -20 -10 -7 -15 9 -3 19
-1 23 4 5 9 59 37 84 44 21 6 40 19 40 26 0 5 -12 3 -26 -3 -22 -11 -28 -10
-40 7 -8 10 -14 14 -14 8z"/>
<path d="M46 303 c-14 -4 -17 -11 -13 -32 3 -16 1 -33 -5 -39 -15 -15 -4 -26
17 -19 10 4 15 20 15 47 0 22 5 40 10 40 18 0 11 -86 -8 -103 -26 -24 -39 -21
-50 11 -6 15 -11 20 -11 11 -2 -27 39 -71 58 -63 9 3 21 7 27 7 6 0 11 6 11
13 0 7 -5 10 -10 7 -7 -4 -7 1 -2 13 15 35 17 72 6 93 -7 11 -15 20 -19 20 -4
-1 -15 -3 -26 -6z"/>
<path d="M1623 273 c-46 -20 -81 -38 -79 -40 2 -3 13 0 24 6 12 6 30 11 42 11
12 0 28 7 37 15 8 8 18 13 21 11 4 -2 16 5 26 15 25 25 25 25 -71 -18z"/>
<path d="M1532 273 c-73 -37 -59 -40 19 -4 35 16 57 30 49 30 -8 0 -39 -12
-68 -26z"/>
<path d="M717 241 c9 -10 5 -20 -17 -43 -41 -43 -25 -67 50 -73 20 -2 25 3 27
23 1 16 -2 20 -7 12 -5 -9 -10 -5 -16 13 -8 21 -11 23 -22 11 -10 -11 -10 -14
2 -14 11 0 26 -20 26 -36 0 -2 -12 1 -27 7 -16 6 -30 10 -33 9 -2 -1 -6 3 -8
8 -1 5 11 21 27 35 l30 25 -22 18 c-12 10 -17 12 -10 5z"/>
<path d="M1490 214 c-31 -17 -62 -18 -78 -2 -8 8 -12 8 -12 1 0 -29 82 -31
112 -3 25 23 15 25 -22 4z"/>
<path d="M1650 188 c0 -11 52 -118 57 -118 2 0 1 9 -2 20 -8 25 -55 108 -55
98z"/>
<path d="M265 140 c-11 -10 -49 -30 -85 -44 -72 -28 -71 -34 3 -11 60 18 107
45 107 62 0 17 -2 17 -25 -7z"/>
<path d="M72 132 c-18 -10 -30 -21 -26 -25 4 -4 -1 -14 -12 -22 -22 -17 -12
-20 17 -4 12 6 18 17 15 25 -3 8 1 14 8 14 7 0 19 7 26 15 16 19 13 18 -28 -3z"/>
<path d="M2099 107 c-14 -7 -24 -17 -22 -24 3 -8 13 -7 34 5 47 27 38 41 -12
19z"/>
<path d="M504 68 c3 -13 6 -34 6 -48 1 -19 3 -21 9 -10 11 19 2 80 -11 80 -6
0 -8 -10 -4 -22z"/>
<path d="M2014 60 c-28 -11 -40 -30 -20 -30 8 0 18 5 22 11 3 6 14 9 24 6 13
-3 17 0 13 9 -6 16 -9 16 -39 4z"/>
<path d="M720 25 c-7 -9 -10 -19 -6 -22 4 -4 12 -1 17 7 8 11 12 12 16 3 6
-15 23 -17 23 -3 0 5 -9 14 -19 19 -14 8 -22 7 -31 -4z"/>
</g>
</svg>
